/* XPM */
static char *_4a3c9a50be34beb91acdb35f5d30dae00twYYkGYgUfGtCW[] = {
/* columns rows colors chars-per-pixel */
"48 48 87 1 ",
"  c #F1DFD6",
". c #D8C1C2",
"X c #3E394B",
"o c #ADA5BD",
"O c #C42B12",
"+ c #FAE241",
"@ c #F1800E",
"# c #642121",
"$ c #716C7C",
"% c #F44A07",
"& c #F99B22",
"* c #F44B07",
"= c #8F2D19",
"- c #F49722",
"; c #FDF9F1",
": c #F8A630",
"> c #7C281D",
", c #CC3F0E",
"< c #F9C739",
"1 c #763825",
"2 c #7B3F26",
"3 c #8C4D27",
"4 c #C58D31",
"5 c #74261E",
"6 c #EF4908",
"7 c #983018",
"8 c #FAE244",
"9 c #C42E15",
"0 c #E64609",
"q c #F99D24",
"w c #F9A02A",
"e c #FAE54D",
"r c #FAE550",
"t c #F48F1C",
"y c #F38D1A",
"u c #FAE348",
"i c #6A2626",
"p c #F9AC3C",
"a c #FAE85F",
"s c #F49726",
"d c #FAE85A",
"f c #F99F29",
"g c #DF8F2F",
"h c #F76418",
"j c #F7681C",
"k c #D0492D",
"l c #CF452A",
"z c #CC3E22",
"x c #C63017",
"c c #662323",
"v c #F7681B",
"b c #F9CC43",
"n c #7B3A3A",
"m c #803E3E",
"M c #F49826",
"N c #F9A32D",
"B c #F9C73B",
"V c #F9CF4B",
"C c #7E3E3E",
"Z c #F9A733",
"A c #FAE756",
"S c #F9D357",
"D c #F9D050",
"F c #692626",
"G c #FAE448",
"H c #F7661B",
"J c #6A2727",
"K c #F9AF40",
"L c #F9AE40",
"P c #FAE245",
"I c #FAE653",
"U c #FAE656",
"Y c #733030",
"T c #7D3B3B",
"R c #733232",
"E c #6B2828",
"W c #F76116",
"Q c #7D3C3C",
"! c #7F3E3E",
"~ c #722F2F",
"^ c #C93519",
"/ c #F9AB3A",
"( c #F9A835",
") c #6E2B2B",
"_ c #652222",
"` c #702D2D",
"' c #6E2C2C",
/* pixels */
"    ..XXoooOOOOOOO    XXOOOOOO....ooooXXoo  ....",
"    ..XXoooOOOOOOO    XXOOOOOO...oooooXXoo  ....",
"    ..XXoooOOOOOOO ...XXOOOOOO..ooooooXXoo  ....",
"    ..XXoooOOO++@@####XX########ooooooXXoo  ....",
"    ..XXoo.OOO++@@####XX########......$$....    ",
"    ..XXoo.OOO@@++@@%%##@@@@@@@@##....$$....    ",
"....  XXoo.OOO@@++@@%%##@@@@@@@@##  ..XXoo..    ",
"....  XXoo..  %%@@++@@@@&&%%&&&&**##..XXoo..    ",
"    ..XXoooo  %%@@++@@@@&&%%&&&&**##  XXoooo...o",
"    ..XXoooo  ..##@@@@++++++%%%%++##  XXoooo....",
"  ....XXoooooo  ##@@@@++++++%%%%++##..XXooooooo.",
"  ....XXoooooo%%##%%&&++##OO++++OO##..XXoooooooo",
"$$$$XXXXXXXXXX%%##=%&&++##OO++++OO##XXXXXXXXXXXX",
"$$$$XXXX%%XX%%++%%##&&&&++##OO##OO##XXXXXXXXXXXX",
"......  %%  %%++%%##-&&&++##OO##OO##..;;  ..oooo",
"......%%++%%OO::OO##=%@@&&++++OO++##..;;  ..oooo",
"oooooo%%++%%OO::OO##>,@@&&++++OO++##oo..  ;;....",
"oooooo%%::++%%@@%%OO##%%@@&&++OO++##oo%%  ;;....",
"XXXXXX%%::++%%@@%%OO##%%@@&&++OO++##XX**XXXXXXXX",
"XXXXXXXX%%::<<@@<<%%+1##%%@@++##++##****XXXXXXXX",
"......$$%%::<<@@<<%%+2##%%@@++##++##%%**oo......",
"......$$%%OO@@<<%%%%<3##############OO%*oo......",
"    ..XX%%OO@@<<%%%%<4##############OO**oo..    ",
"    ..%%++::OO%%&&<<##56++++OO++++%%OOXXoo..    ",
"....  %%++::OO%%&&<<##77+++899++++*%OOXXoooo    ",
"....  XX%%OO&&&&######0=qwertyeu&&*%OOXXoooo    ",
"..oo..XX%%OO&&&&######*i:paassad:f**OOXXoooooooo",
"..oo..XXooooOO##OOOO##qghjjjkkjjlzxO<<**oooooooo",
"XXXX$$XXXXXXOO##OOOO#c:pvjjjkkvjklzO<<**XXXXXXXX",
"XXXX$$XXXXXXOOOO%%&&<bnmjjaaMMaammpNc#XXXXXXXXXX",
"  ....;;  ..OOOO%%&&BVCmjjaaMMaammpZc#  ;;  oooo",
"  ....;;  OO%%&&&&<<8ACmaajjaajjmmSDF#  ;;  oooo",
"  ..oo..  OO%%&&&&<<GdmmaajjaaHHCmSSJ#..    ....",
"  ..oo..    OOOO<<++udmmmmKKaaLLCmaaJ#..    ....",
"$$$$XX$$XXXXOOOO<<++PImmmmKKaaLLmmaUJ#$$XXXXXXXX",
"$$$$XX$$XXXXXX$$OO##cYhjjjmmLLCCmmTRXX$$XXXXXXXX",
"    ..XXoo..;;  OO###EWjjjmmKpQC!mnJ..XXoo..;;;;",
"    ..XXoo..;;  ;;  #c:pjjkkC3kk!T  ..XXoo..;;;;",
"  ;;  XXoo  ..  ..;;##q:hjkkCCkkT~;;  XXoo  ....",
"  ;;  XXoo  ..  ..##&&O9^z/pCCL()_;;  XXoo  ....",
";;  ..XXoooo  ....##&&OOO9wN`'wq##  ..XXoooo    ",
";;  ..XXoooo  ..OOOOOO%%&&++##++##  ..XXoooo    ",
"  ....XX..oooo..OOOOOO%%&&++##++##....XX..oooooo",
"  ....XX..ooooOO%%%%&&&&++++++##++##..XX..oooooo",
"  ..ooXXooooooOO%%%%&&&&++++++##++##ooXXoooo...o",
" ...ooXXoo......####################ooXXo..o...o",
".....oXXoo......####################ooXXo..ooo.o",
" ...ooXXoooooooo####################ooXXoooooooo"
};
