/* XPM */
static char *_b92ecdbbfb14b959e49ff3c2fcb04c2Rnjh0yhG9Ir3wIqI[] = {
/* columns rows colors chars-per-pixel */
"48 48 75 1 ",
"  c #F1DFD6",
". c #D8C1C2",
"X c #3E394B",
"o c #ADA5BD",
"O c #C42B12",
"+ c #642121",
"@ c #F1800E",
"# c #FAE241",
"$ c #716C7C",
"% c #F44A07",
"& c #F44B07",
"* c #F99B22",
"= c #FDF9F1",
"- c #8F2D19",
"; c #F49722",
": c #F8A630",
"> c #CC3F0E",
", c #7C281D",
"< c #763825",
"1 c #F9C739",
"2 c #7B3F26",
"3 c #8C4D27",
"4 c #C58D31",
"5 c #EF4908",
"6 c #74261E",
"7 c #C42E15",
"8 c #FAE245",
"9 c #983018",
"0 c #FAE348",
"q c #FAE54D",
"w c #F38D1A",
"e c #F48F1C",
"r c #F9A02A",
"t c #F99D24",
"y c #E64609",
"u c #F99F29",
"i c #FAE85A",
"p c #FAE85F",
"a c #F49826",
"s c #F49726",
"d c #F9AC3C",
"f c #6A2626",
"g c #C63017",
"h c #CC3E22",
"j c #CF452A",
"k c #F7681C",
"l c #D0492D",
"z c #F76418",
"x c #DF8F2F",
"c c #662323",
"v c #F9A32D",
"b c #803E3E",
"n c #7B3A3A",
"m c #F9CC43",
"M c #F9A733",
"N c #7E3E3E",
"B c #F9CF4B",
"V c #F9D050",
"C c #F9D357",
"Z c #FAE756",
"A c #6A2727",
"S c #FAE448",
"D c #F9AE40",
"F c #F9AF40",
"G c #FAE656",
"H c #733232",
"J c #7D3B3B",
"K c #733030",
"L c #F76116",
"P c #6B2828",
"I c #722F2F",
"U c #6E2C2C",
"Y c #F9AB3A",
"T c #C93519",
"R c #702D2D",
/* pixels */
"    ..XXoooooooo OOOOOOX..   OOOOOOOooXXoo  ....",
"    ..XXoooooooo OOOOOOX.... OOOOOOOooXXoo  ....",
"    ..XXoooooooo OOOOOOX.... OOOOOOOooXXoo  ....",
"    ..XXooooooo++++++++X.++++@@##OOOooXXoo  ....",
"    ..XXoo.... ++++++++Xo++++@@##OOO..$$....    ",
"    ..XXoo...++@@@@@@@@++%%@@##@@OOO..$$....    ",
"....  XXoo.. ++@@@@@@@@++%%@@##@@OOO..XXoo..    ",
"....  XXoo.++&&****%%**@@@@##@@%%   ..XXoo..    ",
"    ..XXooo++%&****%%**@@@@##@@%% ==  XXoooo...o",
"    ..XXooo++##%%%%######@@@@++.  ==  XXoooo....",
"  ....XXooo++##%%%%######@@@@++.......XXooooooo.",
"  ....XXooo++OO####OO++##**%%++%%.....XXoooooooo",
"$$$$XXXXXXX++OO####OO++##**%-++%%X$$XXXXXXXXXXXX",
"$$$$XXXXXXX++OO++OO++##****++%%##%%$X%%XXXXXXXXX",
"......  == ++OO++OO++##***;++%%##%%..%%=  ..oooo",
"......  == ++##OO####**@@%-++OO::OO%%##%% ..oooo",
"oooooo..  .++##OO####**@@>,++OO::OO%%##%% ==....",
"oooooo.&& .++##OO##**@@%%++OO%%@@%%##::%% ==....",
"XXXXXXX&&XX++##OO##**@@%%++OO%%@@%%##::%%XXXXXXX",
"XXXXXXX&&&&++##++##@@%%++<#%%11@@11::%%$XXXXXXXX",
"......$&&&&++##++##@@%%++2#%%11@@11::%%Xoo......",
"......$&&OO++++++++++++++31%%%%11@@OO%%Xoo......",
"    ..X&&OO++++++++++++++41%%%%11@@OO%%Xoo..    ",
"    ..XXoOO&&####OO####56++11**%%OO::##%%o..    ",
"....  XXoOO&&####778###99++11**%%OO::##%%ooo    ",
"....  XXoOO&&**0qweqqrt-y++++++****OO%%Xoooo    ",
"..oo..XXoOO&&u:ipasppd:f&++++++****OO%%Xoooooooo",
"..oo..X&&11Oghjkkllkkkzxt++OOOO++OO...XXoooooooo",
"XXXX$$X&&11Ohjlkkllkkkkd:c+OOOO++OO$XXXXXXXXXXXX",
"XXXX$$XXX+cvdbbppaappkkbnm1**%%OOOO$XXXXXXXXXXXX",
"  ....== +cMdbbppaappkkbNB1**%%OOOO...  ==  oooo",
"  ....== +fVCbbkkppkkppbNZ811****%%OO.  ==  oooo",
"  ..oo.. +ACCbNkzppkkppbbiS11****%%OOo..    ....",
"  ..oo.. +AppbNDDppFFbbbbiS##11OOOO.oo..    ....",
"$$$$XX$$X+AGpbbDDppFFbbbbG8##11OOOO$XX$$XXXXXXXX",
"$$$$XX$$XXXHJbbNNDDbbkkkzK+++OOXXX$$XX$$XXXXXXXX",
"    ..XXoo.AnbbNNdDbbkkkLP+++OO ==  ..XXoo..====",
"    ..XXoo..=JNll3Nllkkd:c+...  ==  ..XXoo..====",
"  ==  XXoo  .IJllNNllkz:t++.      ==  XXoo  ....",
"  ==  XXoo  .+UMDNNdYhT7O**++     ==  XXoo  ....",
"==  ..XXoooo ++tvURvr7OOO**++ ....  ..XXoooo    ",
"==  ..XXoooo ++##++##**%%OOOOOO...  ..XXoooo    ",
"  ....XX..ooo++##++##**%%OOOOOO oo....XX..oooooo",
"  ....XX..o++##++######****%%%%OOo....XX..oooooo",
"  ..ooXXooo++##++######****%%%%OO...ooXXoooo...o",
" ...ooXXoo.++++++++++++++++++++.....ooXXo..o...o",
".....oXXoo.++++++++++++++++++++..oooooXXo..ooo.o",
" ...ooXXooo++++++++++++++++++++oooooooXXoooooooo"
};
