/* XPM */
static char *result[] = {
/* columns rows colors chars-per-pixel */
"48 48 16 1 ",
"  c #F1DFD6",
". c #D8C1C2",
"X c #3E394B",
"o c #ADA5BD",
"O c #62253E",
"+ c #985F40",
"@ c #FDF9F1",
"# c #350C25",
"$ c #80403A",
"% c #BB905C",
"& c #C82C12",
"* c #FE9E23",
"= c #F96D07",
"- c #716C7C",
"; c #551831",
": c #FFE742",
/* pixels */
"    ..XXoooooooo      XX..    ....ooOOOOOOOO....",
"    ..XXoooooooo      XX....  ...oooOOOOOOOO....",
"    ..XXoooooooo   ...XX....  ..ooooOO++++OO....",
"    ..XXoooooooo  ....XX....  ..ooooOO++++OO....",
"    ..XXoo....  @@  ..XXoo..@@  ....##$$OO##    ",
"    ..XXoo....  @@  ..XXoo..@@  ....##$$OO##    ",
"....  XXoo..      @@  XXoo  ..      ##%%$$##    ",
"....  XXoo..      @@  XXoo  ..      ##%%$$##    ",
"    ..XXoooo  ....  ..XXoooo  ..  &&**%%$$**&&.o",
"    ..XXoooo  ....  ..XXoooo  ..  &&**%%$$**&&..",
"  ....XXoooooo  oo....XXoooooo....&&==++$$==&&o.",
"  ....XXoooooo  oo....XXoooooo....&&==++$$==&&oo",
"----XXXXXXXXXXXXXX--XX--XXXXXX--XX--##++$$##XXXX",
"----XXXXXXXXXXXXXX--XX--XXXXXX--XX--##++$$##XXXX",
"......  @@  ooXXoo....    @@..XXoo..##$$OO##oooo",
"......  @@  ooXXoo....    @@..XXoo..##$$OO##oooo",
"oooooo..  ....XXoooooo..    ..XXoooo&&OOOO&&....",
"oooooo..  ....XXoooooo..    ..XXoooo&&OOOO&&....",
"XXXXXXXXXXXX--XXXXXXXX--XXXXXX--XXXX==;;;;==XXXX",
"XXXXXXXXXXXX--XXXXXXXX--XXXXXX--XXXX==;;;;==XXXX",
"......--......  @@  ..XXoo..@@  @@&&::%%$$::&&..",
"......--......  @@  ..XXoo..@@  @@&&::%%$$::&&..",
"    ..XXoo..  @@  @@  XXoo  ..  &&::**%%$$**::&&",
"    ..XXoo..  @@  @@  XXoo  ..  &&::**%%$$**::&&",
"....  XXoooo......  ..XXoooo  ..&&::==$$$$==::&&",
"....  XXoooo......  ..XXoooo  ..&&::==$$$$==::&&",
"..oo..XXoooooooooo....XXoooooo..&&**&&;;;;&&**&&",
"..oo..XXoooooooooo....XXoooooo..&&**&&;;;;&&**&&",
"XXXX--XXXXXXXXXXXX--XX--XXXXXX--XX&&##OOOO##&&XX",
"XXXX--XXXXXXXXXXXX--XX--XXXXXX--XX&&##OOOO##&&XX",
"  ....@@  ..ooXXoo....    @@..XXoo..##$$OO##oooo",
"  ....@@  ..ooXXoo....    @@..XXoo..##$$OO##oooo",
"  ..oo..    ..XXoooooo..  @@..XXoo..##%%$$##....",
"  ..oo..    ..XXoooooo..  @@..XXoo..##%%$$##....",
"----XX--XXXXXX--XXXXXX--XXXXXXXXXX&&**%%$$**&&XX",
"----XX--XXXXXX--XXXXXX--XXXXXXXXXX&&**%%$$**&&XX",
"    ..XXoo..@@  @@  ..XXoo....  @@&&==++$$==&&@@",
"    ..XXoo..@@  @@  ..XXoo....  @@&&==++$$==&&@@",
"  @@  XXoo  ..  ..@@  XXoo..      @@##++$$##....",
"  @@  XXoo  ..  ..@@  XXoo..      @@##++$$##....",
"@@  ..XXoooo  ....  ..XXo...  ....  ##++$$##    ",
"@@  ..XXoooo  ....  ..XXo...  ....  ##++$$##    ",
"  ....XX..oooo..  ....XXoo..oo  oo..##$$OO##oooo",
"  ....XX..oooo..  ....XXoo..oo  oo..##$$OO##oooo",
"  ..ooXXoooooooooo..ooXXoo..oo......OO++++OO...o",
" ...ooXXoo..........ooXXoo..........OO++++OO...o",
".....oXXoo........ooooXXooo......oooOOOOOOOOoo.o",
" ...ooXXooooooooooooooXXooooooooooooOOOOOOOOoooo"
};
