/* XPM */
static char *result[] = {
/* columns rows colors chars-per-pixel */
"48 48 23 1 ",
"  c #F1DFD6",
". c #D8C1C2",
"X c #3E394B",
"o c #ADA5BD",
"O c #FDF9F1",
"+ c #716C7C",
"@ c #07354B",
"# c #032835",
"$ c #B5E61D",
"% c #FAFCDA",
"& c #EAD273",
"* c #0F547D",
"= c #02719E",
"- c #00A2E8",
"; c #22B14C",
": c #293404",
"> c #66D1FF",
", c #147876",
"< c #6D1640",
"1 c #CE5640",
"2 c #C48D71",
"3 c #D8B421",
"4 c #F7D58C",
/* pixels */
"    ..XXoooooooo      XX..    ....ooooXXoo  ....",
"    ..XXoooooooo      XX....  ...oooooXXoo  ....",
"    ..XXoooooooo   ...XX....  ..ooooooXXoo  ....",
"    ..XXoooooooo  ....XX....  ..ooooooXXoo  ....",
"    ..XXoo....  OO  ..XXoo..OO  ......++....    ",
"    ..XXoo....  OO  ..XXoo..OO  ......++....    ",
"....  XXoo..      OO  XXoo  ..      ..XXoo..    ",
"....  XXoo..      OO  XXoo  ..      ..XXoo..    ",
"    ..XXoooo  ..@@@@@@@@@@##  ..  OO  XXoooo...o",
"    ..XXoooo  ..@@@@@@@@@@##  ..  OO  XXoooo....",
"  ....XXoooooo  @@$$%%&&$$**########..XXooooooo.",
"  ....XXoooooo  @@$$%%&&$$**########..XXoooooooo",
"++++XXXXXXXXXXXX@@==$$--;;;;@@==--####XXXXXXXXXX",
"++++XXXXXXXXXXXX@@==$$--;;;;@@==--####XXXXXXXXXX",
"......  OO  ooXXoo::::::::::**@@@@##****  ..oooo",
"......  OO  ooXXoo::::::::::**@@@@##****  ..oooo",
"oooooo..  ....XXoo::$$%%;;--==@@##**--$$  OO....",
"oooooo..  ....XXoo::$$%%;;--==@@##**--$$  OO....",
"XXXXXXXXXXXX++XXXXXX::@@**####**==-->>**XXXXXXXX",
"XXXXXXXXXXXX++XXXXXX::@@**####**==-->>**XXXXXXXX",
"......++......  OO::$$%%;;==@@##@@##@@@@oo......",
"......++......  OO::$$%%;;==@@##@@##@@@@oo......",
"    ..XXoo..  OO  ::::@@**####@@##**--$$oo..    ",
"    ..XXoo..  OO  ::::@@**####@@##**--$$oo..    ",
"....  XXoooo....::==$$%%;;**@@**==-->>**oooo    ",
"....  XXoooo....::==$$%%;;**@@**==-->>**oooo    ",
"..oo..XXoooo@@@@@@::::::**@@@@####@@##XXoooooooo",
"..oo..XXoooo@@@@@@::::::**@@@@####@@##XXoooooooo",
"XXXX++XXXX@@--$$$$;;==@@,,@@,,**,,####XXXXXXXXXX",
"XXXX++XXXX@@--$$$$;;==@@,,@@,,**,,####XXXXXXXXXX",
"  ....OO@@--$$%%%%$$;;==@@,,@@--**--##  OO  oooo",
"  ....OO@@--$$%%%%$$;;==@@,,@@--**--##  OO  oooo",
"  ..oo..##----$$$$;;;;==@@**@@;;,,;;##..    ....",
"  ..oo..##----$$$$;;;;==@@**@@;;,,;;##..    ....",
"++++XX++<<**==;;;;;;==**<<########<<11<<XXXXXXXX",
"++++XX++<<**==;;;;;;==**<<########<<11<<XXXXXXXX",
"    ..XX<<223344&&&&&&3322<<2211<<2211<<oo..OOOO",
"    ..XX<<223344&&&&&&3322<<2211<<2211<<oo..OOOO",
"  OO  XXoo<<<<<<<<<<<<<<<<<<<<<<<<<<<<XXoo  ....",
"  OO  XXoo<<<<<<<<<<<<<<<<<<<<<<<<<<<<XXoo  ....",
"OO  ..XXoooo  ....  ..XXo...  ....  ..XXoooo    ",
"OO  ..XXoooo  ....  ..XXo...  ....  ..XXoooo    ",
"  ....XX..oooo..  ....XXoo..oo  oo....XX..oooooo",
"  ....XX..oooo..  ....XXoo..oo  oo....XX..oooooo",
"  ..ooXXoooooooooo..ooXXoo..oo......ooXXoooo...o",
" ...ooXXoo..........ooXXoo..........ooXXo..o...o",
".....oXXoo........ooooXXooo......oooooXXo..ooo.o",
" ...ooXXooooooooooooooXXooooooooooooooXXoooooooo"
};
