/* XPM */
static char *_cab2dd5994a4a8da5034eca44277b93h3olK009evMdE7LO[] = {
/* columns rows colors chars-per-pixel */
"48 48 169 2 ",
"   c #101021",
".  c #1B1B26",
"X  c #1C1B2C",
"o  c #181732",
"O  c #1D1D3F",
"+  c #201F29",
"@  c #201E30",
"#  c #23222B",
"$  c #242432",
"%  c #272832",
"&  c #2C2C3B",
"*  c #322F38",
"=  c #313031",
"-  c #353339",
";  c #38363D",
":  c #3B3A3B",
">  c #1D1B41",
",  c #1F1D48",
"<  c #23224C",
"1  c #292649",
"2  c #292747",
"3  c #322E40",
"4  c #373543",
"5  c #3A3643",
"6  c #363448",
"7  c #3E394B",
"8  c #3D3E41",
"9  c #282657",
"0  c #262359",
"q  c #29285A",
"w  c #262553",
"e  c #292662",
"r  c #2D296C",
"t  c #2D2B67",
"y  c #3D3862",
"u  c #322F76",
"i  c #34307D",
"p  c #423E4C",
"a  c #413E51",
"s  c #413B6F",
"d  c #443E74",
"f  c #3E4043",
"g  c #454848",
"h  c #4A4849",
"j  c #504C4C",
"k  c #4E504E",
"l  c #4E4753",
"z  c #474852",
"x  c #4C4B5A",
"c  c #514E58",
"v  c #504D54",
"b  c #4F515A",
"n  c #525552",
"m  c #575957",
"M  c #56515A",
"N  c #5C5C5C",
"B  c #605B5A",
"V  c #575863",
"C  c #595863",
"Z  c #5A5666",
"A  c #464077",
"S  c #4A437D",
"D  c #615C62",
"F  c #626164",
"G  c #65646A",
"H  c #6C6A6B",
"J  c #6B6563",
"K  c #6A6673",
"L  c #6B6B72",
"P  c #716C7C",
"I  c #737374",
"U  c #75747C",
"Y  c #7D7B7D",
"T  c #77797C",
"R  c #373385",
"E  c #39348C",
"W  c #3B3688",
"Q  c #3F3A92",
"!  c #453F89",
"~  c #403B93",
"^  c #4A4782",
"/  c #504988",
"(  c #4F4993",
")  c #534B9C",
"_  c #584F9E",
"`  c #5A539E",
"'  c #696982",
"]  c #757080",
"[  c #7C7B83",
"{  c #7E788E",
"}  c #7B7685",
"|  c #5751A4",
" . c #5D58A6",
".. c #5F5AB2",
"X. c #6359A5",
"o. c #645BA9",
"O. c #685FAF",
"+. c #625CB5",
"@. c #6B61AB",
"#. c #7167AF",
"$. c #6D66BB",
"%. c #6F68BE",
"&. c #6962B5",
"*. c #796FB4",
"=. c #736DC6",
"-. c #867880",
";. c #837E8E",
":. c #8277B9",
">. c #7E8282",
",. c #848284",
"<. c #848489",
"1. c #88878B",
"2. c #888B8E",
"3. c #878293",
"4. c #8A8496",
"5. c #8C8D94",
"6. c #8F899A",
"7. c #8A8899",
"8. c #9C8B91",
"9. c #8C9092",
"0. c #94969C",
"q. c #98979C",
"w. c #A59697",
"e. c #AE9D9E",
"r. c #9D9FA6",
"t. c #A09CAC",
"y. c #AE9CA0",
"u. c #A59EB4",
"i. c #9EA0AD",
"p. c #A5AAAD",
"a. c #A8A3A5",
"s. c #B4A4A4",
"d. c #B8ABA5",
"f. c #BDAEAA",
"g. c #B8A5A6",
"h. c #A8A0B7",
"j. c #A6A8B0",
"k. c #AAAAB6",
"l. c #ADA5BD",
"z. c #BDAFB4",
"x. c #BDB8B9",
"c. c #C6B8B1",
"v. c #C5C2BC",
"b. c #9389C5",
"n. c #9087CE",
"m. c #988DC8",
"M. c #9E93CC",
"N. c #9C93D1",
"B. c #A99ED5",
"V. c #A096D2",
"C. c #B9B9C5",
"Z. c #B8B6C1",
"A. c #ADA2D6",
"S. c #B5B6D6",
"D. c #CEBBC1",
"F. c #C0C2CE",
"G. c #D8C1C2",
"H. c #D7C1C2",
"J. c #C4C5D2",
"K. c #C8CAD9",
"L. c #E1D1C8",
"P. c #E8D7D2",
"I. c #F1DFD6",
"U. c #D0D1E7",
"Y. c #DEDFEF",
"T. c #F2EEE7",
"R. c #F8F4EE",
"E. c #FBF7F0",
"W. c #FDF9F1",
/* pixels */
"I.I.I.I.G.G.7 7 l.l.l.l.l.l.l.l.I.I.I.I.I.I.p 7 D.D.I.I.I.I.G.G.G.G.l.l.l.l.p p u.l.I.I.G.G.G.G.",
"I.I.I.I.G.G.7 7 l.l.l.l.l.l.l.l.I.I.I.I.I.I.p p G.G.G.G.I.I.G.G.G.l.l.l.l.l.6 p h.l.I.I.G.G.G.G.",
"I.I.I.I.G.G.7 7 l.l.l.l.l.l.l.l.I.I.I.G.G.G.7 7 G.G.G.G.I.I.G.G.l.l.A.h.l.l.p p l.l.I.I.G.G.G.G.",
"I.I.I.I.G.G.7 7 l.l.l.l.l.l.l.l.I.I.G.G.G.D.7 7 G.G.G.G.I.I.G.G.l.l.h.Z.l.l.p p l.l.I.I.G.G.G.G.",
"I.I.I.I.G.G.7 7 l.l.v.G.G.G.P.G.T.W.I.I.H.H.6 7 B.u.G.G.W.W.I.I.G.G.G.G.G.D.P P G.G.G.G.I.I.I.I.",
"I.I.I.I.G.G.7 7 l.l.G.G.G.c.x.C c.W.I.P.D.D.V a l.Z.G.G.W.W.I.I.G.G.G.G.G.D.P P G.G.G.G.I.I.I.I.",
"G.G.G.G.I.I.7 7 B.l.G.G.I.6.] 5 s.I.R.Z.6.6.7.x l.l.I.I.G.G.I.I.I.I.I.I.G.G.7 7 l.l.G.G.I.I.I.I.",
"G.G.G.G.I.I.7 7 u.Z.G.g.f.G F F w.f.v.a.F F F 5 4.4.L.I.G.G.I.I.I.I.I.I.G.G.7 7 l.l.G.G.I.I.I.I.",
"I.I.I.I.G.G.7 7 l.l.l.M = Y.Y.Y.G = = G Y.Y.Y.= = = 4.l.I.I.G.G.I.I.E.E.I.I.7 7 l.l.l.l.G.G.G.l.",
"I.I.I.I.G.G.7 7 l.u.;.P L J.K.U.G = = F U.K.J.L H H } ;.I.I.G.G.I.I.E.E.I.I.7 7 l.l.l.l.G.G.G.G.",
"I.I.G.G.G.G.7 7 l.3.= k.Y.0.i.S.V = = V S.i.0.Y.Y.Y.G = l.l.G.G.G.G.G.G.D.G.p p l.l.l.l.l.l.h.G.",
"I.I.G.G.G.G.7 7 l.3.= 0.J.0.i.S.V = = V S.i.0.j.j.j.1.U } 4.G.G.G.G.G.D.G.G.p p l.l.l.l.l.l.B.u.",
"P P P P 7 7 7 7 7 5 = T 0.0.i.S.V = = V S.i.0.n n n Z.Y.= - P P p p K P 7 7 6 p p p 6 p p p p p ",
"P P P P 7 7 7 7 ; - # z V C Z ' 4 # # 4 ' 7.0.n n n 1.r.<.L c K p p P P 7 p p p p p 5 p p p 6 p ",
"G.G.G.G.G.G.I.I.= #                       L 0.n n n n n Y.k.= 5 l.l.G.G.D.D.E.E.I.I.D.G.l.l.l.l.",
"G.G.G.G.G.G.I.I.X .   , 0 0 0 0 0 0 0 ,   7 x >.I n n n 0.0.5.c P l.G.G.G.G.E.E.I.I.G.G.l.l.l.l.",
"l.l.B.h.B.h.G.D.      r E E E W E E E r       j.9.n n n n >.Y.G = l.l.l.l.l.G.G.I.I.W.W.G.G.G.G.",
"l.l.h.u.h.Z.-.D e e e ! ) ) ) ) ) ) ) ( ^ d y b b n n n N H 9.z * u.l.l.l.l.D.D.I.I.W.W.D.D.G.G.",
"p p p p p p @   R E R ) X.X.X.X.X.X. .@.=.&.X.  $ n n n F N n : = p p p p p P P 7 7 a 7 7 7 p p ",
"p p p p 3 + 0 e ) | +.X.X.X.#.b.b.b.$.%.=.%.$.A y % g n F F N 5.u.* - p p 5 P P 7 7 7 7 7 7 7 p ",
"c.G.G.G.8.  r E X.O.=.O.X.X.*.A.A.A.=.=.=.=.=.X.S   f n F F F C.Y.= D I.G.D.6 p l.l.G.G.G.G.G.G.",
"G.G.G.G.8.  r E X.o.O.o.X.m.M.A.A.A.N.n.=.n.N.X.S   f n F F F C.Y.= J I.G.D.p p l.l.G.G.G.G.G.G.",
"I.I.I.I.8.  r E X.o.X.X.X.A.A.A.A.A.A.N.=.N.A.X.S   f n F F F C.Y.* H E.I.I.p 6 l.l.D.G.I.I.I.I.",
"I.I.I.p 6 < u E =.O.X.X.X.A.A.A.A.A.A.B.N.A.A.X.` / 3 + m N J 1.w.= H R.I.I.p p l.l.G.G.I.I.I.I.",
"G.G.G.  o e s E =.%.X.X.X.A.A.A.A.A.A.A.A.B.B.X.X.X.1   n m F T ,.= J I.v.G.p 3 l.l.l.l.I.I.I.I.",
"G.G.G.  o 9 ) $.=.=.=.o.X.#.:.A.A.A.A.A.A.:.#.X.X.X.1   n m F N N J.t.j e.G.p p l.l.l.l.I.I.I.I.",
"G.G.l.  o 0 ..=.=.=.=.O.X.X.*.A.A.A.A.A.A.*.X.X.X.X.2   n m F m n Y.k.= w.G.p p l.l.l.l.l.l.l.l.",
"G.G.l.  o 0 R ~ =.%.o.o.X.X.X.O.@.O.@.O.O.o.X.X._ Q >   Y I n n n Y.k.= w.G.p p l.l.l.l.l.l.M.h.",
"6 p p   o q i ~ =.%.X.X.X.X.X.X.X.X.X.X.X.X.X.X.) E O   ,.I n n n Y.l.= 6 6 6 p p p p p p p 6 6 ",
"p p p   o 9 i E E E E E E X.X.X.X.X.X.X.X.$.=.E E R O   p.9.m : * 1.H = p p p a p p p 3 p p p p ",
"I.I.G.  @ 9 i E E E E E E X.X.X.X.X.X.X.X.$.=.E E E O   p.9.n : = -.J = 8.G.I.I.E.R.P.I.l.l.l.l.",
"I.I.G.D.8.  , 0 E E E +.=.E E E E W W W E E E E r   g n ,.H = 5 l.= * = w.G.I.I.E.R.I.I.l.l.l.l.",
"I.I.D.G.;.  , 0 E E E +.=.E E E E E E E E E E E r   f n ,.H = 5 l.; : : 1.l.D.G.I.I.I.I.D.G.G.G.",
"I.I.G.G.;.  , e 9 r E E R E E E E E E E E E E E r   f n ,.H = 5 l.l.G.D.A.u.G.G.I.I.I.P.G.G.G.G.",
"P P P P &   , w 9 r W W R E E E Q ~ E E R R R R e   : n ,.H = 5 p p P P 7 7 P P p p p p p 6 p p ",
"P P P P p p &   q q 9 q 0 E E E +.=.E i q q q   . = = = ,.H = 5 5 p P P 7 7 P P p p 6 p p p p p ",
"I.I.I.I.D.G.@ o < < w 9 9 R R R | &.R r w < w 3 & = h j I B = d.E.W.I.I.D.G.7 7 h.B.G.G.R.E.E.E.",
"I.I.I.I.G.G.7 7       , q q q 9 q q 9 <       g.<.= w.G.= = = d.W.W.I.I.G.G.7 7 h.Z.G.G.R.R.E.E.",
"I.I.E.E.I.I.p p 7 &   > < < < < < < < >   3   ;.T v s.G.B B B c.I.I.W.W.I.I.p 7 l.l.I.I.G.G.D.G.",
"I.I.E.E.I.I.p p l.{                       y.p * m l.D.G.I.I.I.I.I.I.W.W.I.I.p p l.l.I.I.G.G.G.G.",
"E.E.I.I.G.G.6 p l.6.p p M M l l p l B M p g.3 * P G.G.G.I.I.G.G.G.G.I.I.G.D.p 6 l.l.l.l.I.I.I.I.",
"E.R.I.I.G.D.p p l.l.l.l.I.I.G.D.G.G.I.I.G.G.p p l.G.G.G.I.I.G.G.G.G.I.I.G.D.p p l.l.l.l.I.I.I.I.",
"I.I.G.G.G.G.p 6 D.G.Z.l.l.l.G.G.I.I.G.G.G.G.p p l.l.G.G.l.l.I.I.l.l.G.G.G.G.6 p G.G.l.l.l.l.l.l.",
"I.I.G.G.G.G.p 6 G.G.u.B.l.l.G.G.I.I.G.G.G.G.p p l.l.G.G.l.l.I.I.l.l.G.G.G.G.p p G.G.l.l.l.l.l.l.",
"I.I.G.G.l.l.p p l.l.l.l.l.l.l.l.l.l.G.G.h.B.6 p l.l.G.G.l.l.G.G.G.G.G.G.l.l.p 6 l.l.l.l.G.G.G.l.",
"I.D.G.G.l.l.p p l.l.G.G.G.G.G.G.G.G.G.G.l.u.p p l.l.G.G.G.G.G.G.G.G.G.G.l.l.p p l.G.G.l.G.G.G.l.",
"G.G.G.G.D.l.p p l.l.G.G.G.G.c.h.l.l.l.l.l.l.p 6 u.l.y.D.G.G.G.D.G.l.l.l.l.l.p p l.G.G.l.l.l.G.l.",
"I.G.G.G.l.u.p p l.l.l.l.l.l.l.h.l.l.l.l.l.l.p p u.l.l.Z.l.h.A.Z.l.l.l.l.l.h.p p l.l.l.l.l.l.l.l."
};
