/* XPM */
static char *_98f9754963842bfc1e88b377febc691gxYX70bey8q1cfeq[] = {
/* columns rows colors chars-per-pixel */
"48 48 200 2 ",
"   c #F1DFD6",
".  c #D8C1C2",
"X  c #3E394B",
"o  c #ADA5BD",
"O  c #FDF9F1",
"+  c #716C7C",
"@  c #B7AAA4",
"#  c #313031",
"$  c #BFBCB7",
"%  c #E8D7CE",
"&  c #A39394",
"*  c #39383A",
"=  c #333234",
"-  c #373637",
";  c #3D394A",
":  c #A9A1B9",
">  c #65656A",
",  c #DEDFEF",
"<  c #65646A",
"1  c #AAABB6",
"2  c #56535B",
"3  c #626267",
"4  c #D6D7E6",
"5  c #A59596",
"6  c #A7A7B4",
"7  c #D9DAEC",
"8  c #4F4F51",
"9  c #94969C",
"0  c #8D8EA5",
"q  c #B5B6D6",
"w  c #3C3749",
"e  c #363244",
"r  c #2B2A2E",
"t  c #444449",
"y  c #7D7F87",
"u  c #605C6C",
"i  c #504D5A",
"p  c #8C8CA4",
"a  c #353339",
"s  c #302D3E",
"d  c #101021",
"f  c #8484A0",
"g  c #C5C2C0",
"h  c #8E8C90",
"j  c #171633",
"k  c #1A183A",
"l  c #686982",
"z  c #8E8FAB",
"x  c #6B6563",
"c  c #2D296C",
"v  c #39348C",
"b  c #AE9CA0",
"n  c #9C8C92",
"m  c #1C1B41",
"M  c #39347B",
"N  c #463F93",
"B  c #3E3980",
"V  c #2E2C52",
"C  c #2A284B",
"Z  c #292648",
"A  c #27262C",
"S  c #645E5F",
"D  c #4C4551",
"F  c #564E9E",
"G  c #6359A5",
"H  c #685FAF",
"J  c #736DC6",
"K  c #544F58",
"L  c #393446",
"P  c #2D2A3C",
"I  c #232144",
"U  c #1F1D48",
"Y  c #484195",
"T  c #4A4499",
"R  c #4E49A1",
"E  c #5D54A4",
"W  c #6B61AA",
"Q  c #7E73B7",
"!  c #6960B1",
"~  c #6C64B7",
"^  c #2E2A51",
"/  c #2E2A4A",
"(  c #796FB4",
")  c #ADA2D6",
"_  c #4A437D",
"`  c #9C8B91",
"'  c #665CAB",
"]  c #6C65B8",
"[  c #8278BA",
"{  c #8F85C2",
"}  c #8C84CD",
"|  c #847DCB",
" . c #9C92D1",
".. c #837A7E",
"X. c #5B5263",
"o. c #1C1C3D",
"O. c #302D74",
"+. c #6B63B5",
"@. c #6860B0",
"#. c #A49AD4",
"$. c #8F87CE",
"%. c #564E91",
"&. c #383461",
"*. c #6D6575",
"=. c #181732",
"-. c #29285A",
";. c #34307D",
":. c #6E67BC",
">. c #292649",
",. c #4B4693",
"<. c #5953AC",
"1. c #716AC2",
"2. c #665CAA",
"3. c #847ABB",
"4. c #9086C3",
"5. c #5D58A6",
"6. c #44408D",
"7. c #4F4AA2",
"8. c #7069C0",
"9. c #6961B2",
"0. c #655BA9",
"q. c #6C61AB",
"w. c #8075B8",
"e. c #5B52A0",
"r. c #494296",
"t. c #211F44",
"y. c #564E9D",
"u. c #4C469F",
"i. c #4A459C",
"p. c #474094",
"a. c #6B62B5",
"s. c #6E67BB",
"d. c #433C92",
"f. c #A39298",
"g. c #796E79",
"h. c #171630",
"j. c #262556",
"k. c #2D2B67",
"l. c #5751AA",
"z. c #645EB7",
"x. c #443E93",
"c. c #474199",
"v. c #48439B",
"b. c #302C74",
"n. c #1B193D",
"m. c #8E8B95",
"M. c #BFBCBA",
"N. c #222149",
"B. c #625CB5",
"V. c #B6B4B3",
"C. c #7E788E",
"Z. c #2C2A64",
"A. c #302D70",
"S. c #413C94",
"D. c #443F97",
"F. c #2E2C69",
"G. c #383445",
"H. c #2B2A3E",
"J. c #131329",
"K. c #2A285C",
"L. c #2B2A61",
"P. c #5C57AF",
"I. c #6B65BE",
"U. c #35317F",
"Y. c #16152F",
"T. c #201E36",
"R. c #2D2B3C",
"E. c #1E1C2E",
"W. c #3B3648",
"Q. c #121225",
"!. c #22214A",
"~. c #2A295E",
"^. c #2D2C61",
"/. c #2E2D62",
"(. c #23224D",
"). c #2F2E30",
"_. c #55525B",
"`. c #212149",
"'. c #ACA4BC",
"]. c #7D778D",
"[. c #101022",
"{. c #7F798F",
"}. c #151525",
"|. c #151425",
" X c #161526",
".X c #2C2A30",
"XX c #313032",
"oX c #9D96AD",
"OX c #A69FB6",
"+X c #D0BCC1",
"@X c #D7C0C1",
"#X c #D7C0C2",
"$X c #3F3A4C",
"%X c #D7C1C2",
"&X c #CBB8C0",
"*X c #A9A1B8",
"=X c #A8A0B7",
"-X c #A39DB2",
";X c #A39CB3",
":X c #AAA3BA",
/* pixels */
"        . . X X o o o o o o o o             X X . .         . . . . o o o o X X o o     . . . . ",
"        . . X X o o o o o o o o             X X . . . .     . . . o o o o o X X o o     . . . . ",
"        . . X X o o o o o o o o       . . . X X . . . .     . . o o o o o o X X o o     . . . . ",
"        . . X X o o o o o o o o     . . . . X X . . . .     . . o o o o o o X X o o     . . . . ",
"        . . X X o o . . . .     O O     . . X X o o . . O O     . . . . . . + + . . . .         ",
"        . . X X o o . . . .     O O     . . X X o o . . O O     . . . . . . + + . . . .         ",
". . . .     X X o o . .             O O     X X o o     . .             . . X X o o . .         ",
". . . .     X X o o . .     @ # # # O $ # # # X o o     . .             . . X X o o . .         ",
"        . . X X o o o o   % & * = #   @ # - * ; : o o o     . .     O O     X X o o o o . . . o ",
"        . . X X o o o o   # > , < #   @ # 1 , # 2 o o o     . .     O O     X X o o o o . . . . ",
"    . . . . X X o o o o o # 3 4 3 # . 5 # 6 7 # 2 o o o o o . . . . . . . . X X o o o o o o o . ",
"    . . . . X X o o o o o # 8 9 8 # . 5 # 0 q # 2 o o o o o . . . . . . . . X X o o o o o o o o ",
"+ + + + X X X X X w e e e r t y t r u i r p q # a X X X X X + + X X + + X X X X X X X X X X X X ",
"+ + + + X X X X X s d d d d d d d d d d d f q # a X X X X X + + X X + + X X X X X X X X X X X X ",
". . . . . .     g h d j k k k k k k k j d l z # x   O O . . X X o o . . . . O O     . . o o o o ",
". . . . . .     d d d c v v v v v v v c d d d # x   O O . . X X o o . . . . O O     . . o o o o ",
"o o o o o o b n m m m M N N N N N N N B V C Z A S       . . X X o o o o o o . .     O O . . . . ",
"o o o o o o D d v v v F G G G G G G G H J H G d K       . . X X o o o o o o . .     O O . . . . ",
"X X X X L P I U Y T R E G G W Q Q Q ! ~ J ~ ! ^ / P L X X X + + X X X X X X + + X X X X X X X X ",
"X X X X s d c v G H J H G G ( ) ) ) J J J J J G _ d s X X X + + X X X X X X + + X X X X X X X X ",
". . . . ` d c v G ' ] ' G [ { ) ) ) } | J | } G _ d n . O O     O O     . . X X o o . . . . . . ",
". . . . ` d c v G G G G G ) ) ) ) ) )  .J  .) G _ d n . O O     O O     . . X X o o . . . . . . ",
"      ..X.o.O.v +.@.G G G ) ) ) ) ) ) #.$.#.) G %.&.*.... .     . . O O     X X o o . .         ",
"      d =.-.;.v J :.G G G ) ) ) ) ) ) ) ) ) ) G G G >.d . .     . . O O     X X o o . .         ",
". . . d =.-.,.<.J 1.~ 2.G 3.4.) ) ) ) ) ) 4.3.G G G >.d     . . . .     . . X X o o o o         ",
". . . d =.-.5.J J J J H G G ( ) ) ) ) ) ) ( G G G G >.d     . . . .     . . X X o o o o         ",
". . o d =.-.6.7.J 8.9.0.G G q.w.w.w.w.w.w.q.G G e.r.t.d o o . .     . . . . X X o o o o o o o o ",
". . o d =.-.;.v J :.G G G G G G G G G G G G G G y.v m d o o . .     . . . . X X o o o o o o o o ",
"X X X d =.-.;.v u.i.p.p.p.G G G G G G G G a.s.p.d.v m d X X + + X X + + X X X X X X X X X X X X ",
"X X X d =.-.;.v v v v v v G G G G G G G G :.J v v v m d X X + + X X + + X X X X X X X X X X X X ",
"    . f.g.h.j.k.v v v l.z.x.x.x.x.x.x.x.x.c.v.v b.n.m.M.. . X X o o . . . .     O O     o o o o ",
"    . . ` d N.-.v v v B.J v v v v v v v v v v v c d V.O . . X X o o . . . .     O O     o o o o ",
"    . . C.d N.-.Z.A.v S.D.v v v v v v v v v v v c d V.O . . X X o o . . o o . .         . . . . ",
"    . . C.d N.-.-.F.v v v v v v v v v v v v v v c d V.O . . X X o o . . o o . .         . . . . ",
"+ + + + w G.H.J.-.K.L.L.L.v v v P.I.v U.L.L.L.Y.T.G.w X X X X X X X + + X X + + X X X X X X X X ",
"+ + + + X X R.d -.-.-.-.-.v v v B.J v ;.-.-.-.d E.X X X X X X X X X + + X X + + X X X X X X X X ",
"        . . w W.Q.Q.Q.!.-.~.~.~.^./.~.(.Q.Q.Q.)._.o . . . .     O O     . . X X o o . . O O O O ",
"        . . X X d d d N.-.-.-.-.-.-.-.`.d d d # 2 o . . . .     O O     . . X X o o . . O O O O ",
"    O O     X X '.].d d [.[.[.[.[.[.[.d d A # X '.o . .             O O     X X o o     . . . . ",
"    O O     X X o {.}.}.|.|.}.}.|.|. X X}..XXXX o o . .             O O     X X o o     . . . . ",
"O O     . . X X o o o o     . . . .     . . X X o . . .     . . . .     . . X X o o o o         ",
"O O     . . X X o o o o     . . . .     . . X X o . . .     . . . .     . . X X o o o o         ",
"    . . . . X X . . o o o o . .     . . . . X X o o . . o o     o o . . . . X X . . o o o o o o ",
"    . . . . X X . . o o o o . .     . . . . X X o o . . o o     o o . . . . X X . . o o o o o o ",
"    . . o o X X o o o o o o : oXOXo . . o o X X o o . . o o . . . . . . o o X X o o o o . . . o ",
"  . . . o o X X o o . . . +X@X. @X@X#X+Xo o X $Xo o . . . . . . . . . . o o X X o . . o . . . o ",
". . . . . o X X o o . . . %X. #X@X&Xo *Xo =X$XX o o o . . . . . . o o o o o X X o . . o o o . o ",
"  . . . o o X X o o o o '.o o o o o o o o -XX X ;Xo :Xo o o o o o o o o o o X X o o o o o o o o "
};
