/* XPM */
static char *f57a92e20921435fdddaaa8736833cb5WCQUWngmp3E27jVJ[] = {
/* columns rows colors chars-per-pixel */
"48 48 159 2 ",
"   c #291410",
".  c #101021",
"X  c #14142B",
"o  c #171732",
"O  c #181733",
"+  c #1B1B34",
"@  c #1B1A39",
"#  c #201E3B",
"$  c #25252B",
"%  c #2C2B2F",
"&  c #342928",
"*  c #292835",
"=  c #2C2A3C",
"-  c #242530",
";  c #302D3E",
":  c #323132",
">  c #36383D",
",  c #3D3C3D",
"<  c #423F3F",
"1  c #46423E",
"2  c #1C1B41",
"3  c #211F4E",
"4  c #22214A",
"5  c #292649",
"6  c #282647",
"7  c #303042",
"8  c #3A3643",
"9  c #373845",
"0  c #3C3C42",
"q  c #3E394B",
"w  c #3B3648",
"e  c #29275F",
"r  c #29285A",
"t  c #262455",
"y  c #2D2B66",
"u  c #2E2B6B",
"i  c #302D6F",
"p  c #36346F",
"a  c #2F2C71",
"s  c #322F75",
"d  c #322E7A",
"f  c #34307D",
"g  c #383474",
"h  c #403A4F",
"j  c #3E4043",
"k  c #434343",
"l  c #44444A",
"z  c #4A4A4C",
"x  c #4A4744",
"c  c #4E514F",
"v  c #454057",
"b  c #4C4551",
"n  c #525552",
"m  c #575957",
"M  c #56535B",
"N  c #58565D",
"B  c #5B5B5C",
"V  c #5A5457",
"C  c #635C5D",
"Z  c #4A437D",
"A  c #5A5667",
"S  c #605F60",
"D  c #625E6B",
"F  c #636163",
"G  c #6A6462",
"H  c #65646A",
"J  c #6B676B",
"K  c #6B6A6B",
"L  c #666771",
"P  c #6C6C74",
"I  c #6B667C",
"U  c #716C7C",
"Y  c #716673",
"T  c #757576",
"R  c #777779",
"E  c #827677",
"W  c #39348C",
"Q  c #3F398F",
"!  c #363181",
"~  c #423D94",
"^  c #44408D",
"/  c #524A8A",
"(  c #474195",
")  c #4B4497",
"_  c #4C4599",
"`  c #544C9C",
"'  c #7E788E",
"]  c #7C7E81",
"[  c #4F4AA2",
"{  c #514CA3",
"}  c #5C53A2",
"|  c #5D58A6",
" . c #5550A8",
".. c #5A54AD",
"X. c #6359A5",
"o. c #665DAB",
"O. c #685FAF",
"+. c #625CB5",
"@. c #685FB0",
"#. c #6F65AD",
"$. c #7267AF",
"%. c #6A62B4",
"&. c #6E67BC",
"*. c #6F68BD",
"=. c #796FB4",
"-. c #766CB2",
";. c #736DC6",
":. c #7E77C9",
">. c #877CBD",
",. c #837CCA",
"<. c #848284",
"1. c #858589",
"2. c #96878C",
"3. c #998A8B",
"4. c #888293",
"5. c #8B8C92",
"6. c #8E879E",
"7. c #9C8B91",
"8. c #8C9092",
"9. c #97999D",
"0. c #A69697",
"q. c #A89A98",
"w. c #938DA2",
"e. c #9F98AF",
"r. c #9D9CA3",
"t. c #A49CB4",
"y. c #A2A4AA",
"u. c #A5AAAD",
"i. c #B8ABA5",
"p. c #BDADAB",
"a. c #B7AAA4",
"s. c #A7A9B1",
"d. c #AAAAB6",
"f. c #ADA5BD",
"g. c #B6B5BF",
"h. c #BBB8B2",
"j. c #C2ADB0",
"k. c #C6B4B1",
"l. c #D1BBBC",
"z. c #D3C3BE",
"x. c #8C81C0",
"c. c #9086C3",
"v. c #998EC9",
"b. c #9C92D1",
"n. c #A197D3",
"m. c #B9BAC5",
"M. c #B4B6C0",
"N. c #ADA2D6",
"B. c #CFBBC1",
"V. c #D5BFC0",
"C. c #D8C1C2",
"Z. c #D9C9C3",
"A. c #C7C8D5",
"S. c #E8D7CE",
"D. c #E3DFDA",
"F. c #F1DFD6",
"G. c #D4D5E4",
"H. c #DDDEEE",
"J. c #FDF9F1",
/* pixels */
"F.F.F.F.C.C.q q f.f.f.f.f.f.f.f.F.F.F.F.F.F.q q C.C.F.F.F.F.C.C.C.C.f.f.f.f.q q f.f.F.F.C.C.C.C.",
"F.F.F.F.C.C.q q f.f.f.f.f.f.f.f.F.F.F.F.F.F.q q C.C.C.C.F.F.C.C.C.f.f.f.f.f.q q f.f.F.F.C.C.C.C.",
"F.F.F.F.C.C.q q f.f.f.f.f.f.f.f.F.F.F.C.C.C.q q C.C.C.C.F.F.C.C.f.f.f.f.f.f.q q f.f.F.F.C.C.C.C.",
"F.F.F.F.C.C.q q f.f.f.f.f.f.f.f.F.F.C.C.C.C.q q C.C.C.C.F.F.C.C.f.f.f.f.f.f.q q f.f.F.F.C.C.C.C.",
"F.F.F.F.C.C.q q f.f.C.C.C.C.F.F.J.J.F.F.C.C.q q f.f.C.C.J.J.F.F.C.C.C.C.C.C.U U C.C.C.C.F.F.F.F.",
"F.F.F.F.C.C.q q f.f.C.C.C.z.F.F.J.J.F.F.C.C.q q f.f.C.C.J.J.F.F.C.C.C.C.C.C.U U C.C.C.C.F.F.F.F.",
"C.C.C.C.F.F.q q f.f.C.C.F.F.F.F.F.F.J.J.F.F.h q f.f.F.F.C.C.F.F.F.F.F.F.C.C.q q f.f.C.C.F.F.F.F.",
"C.C.C.C.F.F.q q f.f.C.C.F.F.F.F.F.F.J.J.F.F.q q f.f.F.F.C.C.F.F.F.F.F.F.C.C.q q f.f.C.C.F.F.F.F.",
"F.F.F.F.C.C.q q f.f.f.f.F.h < , q.C.F.p., , : q f.f.f.f.F.F.z.C.F.F.J.J.F.F.q q f.f.f.f.C.C.C.f.",
"F.F.F.F.C.C.q q f.f.f.f.F.: & : 0.C.F.i.: : : q f.f.f.f.F.F.C.C.F.F.J.J.F.F.q q f.f.f.f.C.C.C.C.",
"F.F.C.C.C.C.q q f.f.f.N : H.G.H.H : : H H.H.H.: : > 4.f.f.f.C.C.C.C.C.C.C.C.q q f.f.f.f.f.f.f.Z.",
"F.F.C.C.C.C.q q f.f.f.M : H.H.H.H : : F H.H.H.: : : 4.f.f.f.C.C.C.C.C.C.C.C.q q f.f.f.f.f.f.f.f.",
"U U U U q q q q q ; . . . . . . . . . . . P 9.H.H.H.H : h 8 U U q q U U q q q q q q q q q q q q ",
"U U U U q q q h w = . X . X X . X X X . . L 5.G.G.G.P 1 h h U U q q U U q q q q q q q q q q q q ",
"C.C.C.C.C.C.F.F.. . . u W W W W W W W u . . . n n n g.H.: C h h f.f.C.C.C.C.J.J.F.F.C.C.f.f.f.f.",
"C.C.C.C.C.C.Z.z.X o X s ~ Q Q Q Q Q ~ s # + + z z n d.A.z G 8 8 f.f.C.C.C.C.J.J.F.F.C.C.f.f.f.f.",
"f.f.f.f.d.N.b . W W W ` X.X.X.X.X.X.X.O.;.%.X.. - n n n H.s.: 8 f.f.f.f.f.f.C.C.F.F.J.J.C.C.C.C.",
"f.f.f.f.t.w.h O ~ ~ ~ } X.X.X.$.$.$.o.%.;.%.o.@ 6 z c n A.y.M j w.d.f.f.f.f.C.C.F.F.J.J.C.C.C.C.",
"h w w h ; . u W X.@.;.O.X.X.=.N.N.N.;.;.;.;.;.X.Z . j n n ] H.H : q q q q q U U q q q q q q q q ",
"w h h w ; . u W X.O.*.o.X.=.>.N.N.N.,.:.;.:.,.X.Z . j n m R m.B : q q q q q U U q q q q q q q q ",
"z.C.C.C.7.. u W X.X.X.X.X.N.N.N.N.N.N.b.;.b.N.X.Z . j n F B n , : J.F.F.C.C.q q f.f.C.C.C.C.C.C.",
"z.C.l.7.Y O s W O.o.X.X.X.N.N.N.N.N.N.b.x.n.N.X./ 5 9 j F S m H P k.k.F.C.C.q q f.f.C.C.C.C.C.C.",
"F.F.F.. O r f W ;.&.X.X.X.N.N.N.N.N.N.N.N.N.N.X.X.X.5 . F F F m.H.: K J.F.F.q q f.f.C.C.F.F.F.F.",
"F.F.F.. O r ^ _ ;.;.@.o.X.c.v.N.N.N.N.N.N.b.x.X.X.X.5 . F F F m.H.: K J.F.F.q q f.f.C.C.F.F.F.F.",
"C.C.C.. # r X.;.;.;.;.@.X.X.=.N.N.N.N.N.N.=.X.X.X.X.6 . F F F m.H.: G F.Z.C.q q f.f.f.f.F.F.F.F.",
"C.C.C.. O t ) ..;.;.%.o.X.X.$.x.x.x.,.w.x.#.X.X.| _ 4 . B S F r.g.: G F.C.C.q q f.f.f.f.F.F.F.F.",
"C.C.f.. O r d W ;.*.X.X.X.X.X.X.o.X.X.X.X.X.X.X.` W 2 . n m F R <.: C Z.C.C.q q f.f.f.f.f.f.f.f.",
"C.C.f.. O r f W  .{ _ _ _ X.X.X.X.X.X.X.| %.&.) ( W 2 . n m F K K 8.1.E p.C.q q f.f.f.f.f.f.t.d.",
"h w h . O r f W W W W W W X.X.X.X.X.X.X.X.&.;.W W W 2 . n m F m m D.d.: > h h w h h h h h h h h ",
"w h h * w @ e i W W W { .._ _ ( _ _ _ ( ) [ { W d 4 7 > K K B n m H.d.: , w h h h h h , h h h , ",
"F.F.C.C.7.. 4 r W W Q +.;.W W W W W W W W W W W u . j n <.T n n 1 H.d.: 0.V.F.F.J.J.S.F.f.f.f.f.",
"F.F.C.C.7.. 4 r a d W ~ [ W W W W W W W W W W W u . 1 n 9.1.n k , q.>.: 0.V.F.F.J.J.F.F.f.f.f.f.",
"F.F.z.z.E . 4 r r y W W W W W W W W W W W W W W u . j n u.8.n , : <.K : 4.f.z.C.F.F.F.F.l.C.C.C.",
"F.F.C.C.9.>.h X r r y y y W W W  .+.W ! y y y 2 6 c c n 5.T , > 4.x h : 4.f.z.C.F.F.F.F.l.C.C.C.",
"U U U U h w = . r r r r r W W W %.;.W f r r r . * F m n <.K : , h : : : > h U U h h h h < h h h ",
"U U U U w h D N o X o 5 r y y y p g y t o X X L V & x n <.J : 8 w 8 D S h w U U h h < w w h h h ",
"F.F.F.F.V.C.h h . . . 6 r r r r r r r 4 . . . <.G   1 n 1.K : i.J.J.F.F.C.C.0 h f.f.C.C.J.J.J.J.",
"F.F.F.F.C.C.w h w.I . X X X X X X . X X . $ % <.K & : : <.K : i.J.J.F.F.C.C.h h f.f.C.C.J.J.J.J.",
"F.F.J.J.F.F.h w f.' . . . . . . . . . . . $ : <.K : : : <.G : i.F.F.J.J.F.F.h w f.f.F.F.C.C.l.V.",
"F.F.J.J.F.F.h h f.s.z.Z.j.j.q.* 2.j.D.D.Z.C : y.<.* 3.k., > : i.F.F.J.J.F.F.w h f.f.F.F.C.C.C.C.",
"J.J.F.F.C.C.h h f.f.f.f.F.F.0.& 0.C.F.F.C.C : u.1.: 0.C.: : : 0.C.C.F.F.C.z.w h f.f.f.f.F.F.F.F.",
"J.J.F.F.C.l.0 8 f.f.f.f.F.F.l.l.C.C.F.F.C.l.q : N l.l.C.S.S.l.C.C.C.F.F.C.l.h , f.f.f.f.F.F.F.F.",
"F.F.C.C.C.C.w h V.C.M.f.f.f.C.C.F.F.C.C.C.C.q : M f.C.C.f.f.F.F.f.f.C.C.C.C.h h C.C.f.f.f.f.f.f.",
"F.F.C.C.C.C.h 0 V.C.t.N.f.f.C.C.F.F.C.C.C.C.q q f.f.C.C.f.f.F.F.f.f.C.C.C.C.8 h C.C.f.f.f.f.f.f.",
"F.F.C.C.f.f.h h f.f.f.f.f.f.f.f.f.f.C.C.f.f.q q f.f.C.C.f.f.C.C.C.C.C.C.f.f.h h f.f.f.f.C.C.C.f.",
"F.C.C.C.f.f.h h f.f.C.C.C.C.C.C.C.C.C.C.f.f.q q f.f.C.C.C.C.C.C.C.C.C.C.f.f.h 8 f.C.C.f.C.C.C.f.",
"C.C.C.C.z.f.h h f.f.C.C.C.C.C.C.C.B.f.f.f.f.q q f.f.f.C.C.C.C.C.C.f.f.f.f.f.h h f.C.C.f.f.f.C.f.",
"F.C.C.C.f.f.w h f.f.f.f.f.f.f.f.f.f.f.f.f.f.q q f.f.f.f.f.f.f.f.f.f.f.f.f.f.h h f.f.f.f.f.f.f.f."
};
