/* XPM */
static char *b6a5c0624f824893820d18cecbd7a061xGmffkdXtXp5QgGw[] = {
/* columns rows colors chars-per-pixel */
"48 48 174 2 ",
"   c #291410",
".  c #221315",
"X  c #2C201E",
"o  c #101021",
"O  c #181826",
"+  c #1D1C2D",
"@  c #181732",
"#  c #181833",
"$  c #1C1C3D",
"%  c #201F29",
"&  c #201F3E",
"*  c #22232D",
"=  c #2B292F",
"-  c #332728",
";  c #252433",
":  c #282736",
">  c #2A2A3A",
",  c #292936",
"<  c #382E31",
"1  c #313031",
"2  c #35333B",
"3  c #3A363D",
"4  c #3B3B3B",
"5  c #1D1C42",
"6  c #222149",
"7  c #292649",
"8  c #282646",
"9  c #343444",
"0  c #3A3642",
"q  c #3D3F43",
"w  c #3E394B",
"e  c #37374A",
"r  c #27255E",
"t  c #29285A",
"y  c #252552",
"u  c #282560",
"i  c #2D2A6C",
"p  c #2C2A64",
"a  c #322F76",
"s  c #312D78",
"d  c #34307E",
"f  c #403F4A",
"g  c #403E42",
"h  c #3E4043",
"j  c #4F4646",
"k  c #454449",
"l  c #4B464A",
"z  c #4A4A4B",
"x  c #444444",
"c  c #504B4B",
"v  c #4F514F",
"b  c #4F4F51",
"n  c #4D4B5E",
"m  c #434354",
"M  c #525552",
"N  c #575957",
"B  c #56535B",
"V  c #585658",
"C  c #5D5D5D",
"Z  c #625B5C",
"A  c #5D605E",
"S  c #5C5B67",
"D  c #4A437D",
"F  c #635F62",
"G  c #605C6C",
"H  c #5E6160",
"J  c #636163",
"K  c #6B6564",
"L  c #65656A",
"P  c #666969",
"I  c #6B6D6C",
"U  c #746D6B",
"Y  c #79716E",
"T  c #6E697F",
"R  c #6F6A77",
"E  c #706E77",
"W  c #7A6F70",
"Q  c #716C7C",
"!  c #6F7273",
"~  c #737474",
"^  c #757679",
"/  c #7C7B7A",
"(  c #847C79",
")  c #867A7B",
"_  c #363284",
"`  c #39348C",
"'  c #383481",
"]  c #3F3A92",
"[  c #453F98",
"{  c #47438A",
"}  c #4A449D",
"|  c #514B95",
" . c #564D9E",
".. c #5B529E",
"X. c #58519A",
"o. c #7C7E81",
"O. c #7D778A",
"+. c #524DA5",
"@. c #5E54A2",
"#. c #5F58AE",
"$. c #5D58A6",
"%. c #5F59B2",
"&. c #6157A4",
"*. c #6359A5",
"=. c #665DAC",
"-. c #685FAF",
";. c #625CB4",
":. c #6D66BC",
">. c #6F68BD",
",. c #6761B6",
"<. c #766BB1",
"1. c #796FB4",
"2. c #736DC5",
"3. c #817F81",
"4. c #887B81",
"5. c #7E8083",
"6. c #848284",
"7. c #8C8285",
"8. c #848689",
"9. c #85898A",
"0. c #898B8E",
"q. c #918783",
"w. c #978B8D",
"e. c #988E8A",
"r. c #878293",
"t. c #888293",
"y. c #8B8C93",
"u. c #9C8B91",
"i. c #8C9192",
"p. c #8F9098",
"a. c #969594",
"s. c #93959C",
"d. c #969A9C",
"f. c #989C9E",
"g. c #AF9E9F",
"h. c #A69896",
"j. c #968FA3",
"k. c #9C9EA4",
"l. c #9B94A9",
"z. c #9D9EA9",
"x. c #9192A0",
"c. c #9BA0A2",
"v. c #A2A4AC",
"b. c #A5AAAD",
"n. c #AEA6A3",
"m. c #B4A5A2",
"M. c #B7AAA4",
"N. c #BFABAC",
"B. c #A0A1B1",
"V. c #A9AAB5",
"C. c #ADA5BD",
"Z. c #A6A8B1",
"A. c #B0B2BB",
"S. c #C0ABAE",
"D. c #C4AFB0",
"F. c #9C93D1",
"G. c #A196CE",
"H. c #A69BD1",
"J. c #A99ED3",
"K. c #ABACC5",
"L. c #B3B4C0",
"P. c #BEBFCC",
"I. c #B7BAC2",
"U. c #ADA2D6",
"Y. c #B5B6D6",
"T. c #BEBFD4",
"R. c #D8C1C2",
"E. c #C8C9D6",
"W. c #C4C5DF",
"Q. c #CBCDDA",
"!. c #F1DFD6",
"~. c #DEDFEF",
"^. c #D4D5E4",
"/. c #FDF9F1",
/* pixels */
"!.!.!.!.R.R.w w C.C.C.C.C.C.C.C.!.!.!.!.!.!.w w R.R.!.!.!.!.R.R.R.R.C.C.C.C.w w C.C.!.!.R.R.R.R.",
"!.!.!.!.R.R.w w C.C.C.C.C.C.C.C.!.!.!.!.!.!.w w R.R.R.R.!.!.R.R.R.C.C.C.C.C.w w C.C.!.!.R.R.R.R.",
"!.!.!.!.R.R.w w C.C.C.C.C.C.C.C.!.!.!.R.R.R.w w R.R.R.R.!.!.R.R.C.C.C.C.C.C.w w C.C.!.!.R.R.R.R.",
"!.!.!.!.R.R.w w C.C.C.C.C.C.C.C.!.!.R.R.R.R.w w R.R.R.R.!.!.R.R.C.C.C.C.C.C.w w C.C.!.!.R.R.R.R.",
"!.!.!.!.R.R.w w C.C.R.R.R.R.!.!././.!.!.R.R.w w C.C.R.R././.!.!.R.R.R.R.R.R.^ T R.R.R.R.!.!.!.!.",
"!.!.!.!.R.R.w w C.C.R.R.R.N.q.q.a./.!.!.R.R.2 2 R l.R.R././.!.!.R.R.R.R.R.R.T R R.R.R.R.!.!.!.!.",
"R.R.R.R.!.!.w w C.C.R.R.!.M.1 1 1 !././.!.!.1 1 1 t.!.!.R.R.!.!.!.!.!.!.R.R.w w C.C.R.R.!.!.!.!.",
"R.R.R.R.!.!.w w C.C.w.Y ( 9.s.x.s.( n./.h.( s.s.s.^ ( ( W W ( ( !.!.!.!.R.R.w w C.C.R.R.!.!.!.!.",
"!.!.!.!.R.R.w w C.C.B = 1 L ~.~.~.1 K !.A 1 ~.~.~.L 1 1 1 1 1 1 !.!././.!.!.w w C.C.C.C.R.R.R.L.",
"!.!.!.!.R.R.w w j.F y.z.c.B.A.T.W.1 K !.Z 1 W.P.A.B.z.z.s.E y.k.Y Y / / Y Y 0 w C.C.C.C.R.R.R.R.",
"!.!.R.R.R.R.w w 4.1 V.~.~.Q.s.K.Y.1 F R.Z 1 Y.K.s.E.~.~.E.s.E.~.1 1 1 1 1 1 2 w C.C.C.C.K.C.C.D.",
"!.!.R.R.R.R.w 2 O.V.y.3.5.5.s.K.Y.1 Z R.Z 1 Y.K.s.8.3.o.0.v.A.I.V.V.b.V.b.8.I 2 B B B Q C.C.C.C.",
"Q Q Q Q w w f 1 H ~.5.M M P s.K.Y.1 x Q 2 1 Y.K.s.P M M I b.b.b.~.~.~.~.~.b.8.1 < < 1 2 w w w w ",
"Q Q Q Q w 3 2 A.l.h > + * ; 9 e w O + : = 1 Y.K.s.P M M N I s.b.^ ~ ^ ^ ^ P ! i.Z.L.L.y.1 2 2 2 ",
"R.R.R.R.R.Z 1 ~.B.o o o o o o o o o o o * 1 Y.K.s.P M M M M i.b.M M M M M M I b.Q.~.~.V.1 1 1 1 ",
"R.R.R.g.z z.P.e 8 o u s s s s s a a r o o O P P A 9.f.M M M A H d.8.M M M M N J I I E 8.P.P.I.E.",
"C.C.K.t.- V.~.o o o u [ ` ` ` ` ` ` i o o o M M M i.b.M M M M M b.i.M M M M M M M M M o.~.~.~.~.",
"C.C.g L E.G & s d d [ @.@.@.@.@.@.@.$.,...X.O 1 M i.b.M M M C A A ~ c.I M A S F A F A J P c x k ",
"f f 1 L ~.n o [ [ _ +.*.*.*.*.*.*.*.-.2.-.*.o = M i.b.M M M C J M I b.U M J J J J J J Z M 4 1 1 ",
"> < ^.B.% i _ @.=.>.-.*.*.1.J.J.J.2.2.2.2.>...D o x N 6.~ M Z J J A N ~ 6.M N J J J J N 1 0 w w ",
"Z < ~.B.o i ` *.-.2.-.*.*.1.U.U.U.2.2.2.2.2.*.D o h M 6.~ M C J J A M ~ 3.M N J J J J M 1 h.R.R.",
"C.~.M q o i ` *.*.*.*.*.U.U.U.U.U.U.F.2.F.U.*.D o h M b.i.M C J J J J N M ~ I M Z J 1 Z R.R.R.R.",
"Z.~.v q o i ` *.*.*.*.*.U.U.U.U.U.U.F.2.F.U.*.{ o h M v.0.N A J J J J N M ~ K M C F 2 F !.!.!.!.",
"/ M o @ r _ ` 2.:.*.*.*.U.U.U.U.U.U.U.U.U.U.*.*.*.8 o M J 6.J M J J J J J ~ I M 4 1 R.R.!.!.!.!.",
"^ v o @ t d [ 2.>.*.*.*.J.J.U.U.U.U.U.U.J.H.*.*.*.7 o M J 9.J M J J J J J ~ I N 4 < C.C.!.!.!.!.",
"1 1 o @ t $.2.2.2.2.,.*.;.4.U.U.U.U.U.U.1.*.*.*.*.7 o M I b.I M J J J J J M F 6.z = C.C.!.!.!.!.",
"l l o @ t @.:.2.2.>.-.*.%.<.G.G.G.G.G.G.<.*.*.&.@.8 o M I f.! A F F J J J M A 6.z 1 C.C.C.C.C.C.",
"R.R.o @ t s ` 2.>.*.*.*.#.&.*.*.*.*.*.*.*.*.*.X.` 5 o J A M ~ 3.M N J A J M J 6.z 1 C.C.C.C.C.C.",
"w w o # t d ` ;.-.@.+. .*.*.*.*.*.*.*.*.=.=...} ` 5 o J C M / 0.M M V V V z C 6.l 1 w w w w w w ",
"w w o # t d ` ` ` ` ` ` *.*.*.*.*.*.*.*.>.2.` ` ` 5 o J C M i.b.N z 1 1 1 1 z 6.z 1 w w w w w w ",
"!.!.k w 6 i _ ` ` ` [ }  . . . . .X.X.+.#.;.` _ i 8 : J Z M 9.c.z c Z Z Z Z K P x 1 !.!.C.C.C.C.",
"!.!.R.u.o 6 t ` ` ` ;.2.` ` ` ` ` ` ` ` ` ` ` i o z J J A M ~ 6.1 S D.R.R.R.M.1 1 1 !.!.C.C.C.C.",
"!.!.R.u.o 6 t a d ` +.;.` ` ` ` ` ` ` ` ` ` ` i o 3 g j c M ~ 6.1 V R.R.C.C.m.K U U !.!.R.R.R.R.",
"!.!.R.u.o 6 t t i ` ` ` ` ` ` ` ` ` ` ` ` ` ` i o       - M ~ 6.1 V R.R.C.C.R.R.!.!.!.!.R.R.R.R.",
"R T Q G & & 5 t p a a a ` ` ` } +.` _ s s s r t f - X - < x U 6.1 2 Q Q w w Q Q w w f w w w w w ",
"T R O.Q w % o r t t t t ` ` ` ;.>.[ d r t t o 2 4.l < f 0 1 P 6.1 2 Q Q w w Q Q w w w w w w w w ",
"!.!.!.!.R.4.: 5 $ $ y t a a a { | i p & 5 5 X f s.b 1 R.S.) K C 1 I !.!.R.R.w w C.C.R.R././././.",
"!.!.!.!.R.R.w o o o 6 t t t t t t r 6 o o o < B b.B 1 R.R.R.K 1 1 U !.!.R.R.w w C.C.R.R././././.",
"!.!././.!.!.f : n o @ $ $ # $ $ $ $ @ o G 4.0 f P Q ) R.!.!.m.e.e.m././.!.!.w w C.C.!.!.R.R.R.R.",
"!.!././.!.!.w w 3.o o o o o o o o o o o g.!.f f 1 t.R.R.!.!.!.!.!.!././.!.!.w w C.C.!.!.R.R.R.R.",
"/./.!.!.R.R.w w l.O.X.R e.e.) ) ) ) 4.u.D.R.w 7 ) S.R.R.!.!.R.R.R.R.!.!.R.R.w w C.C.C.C.!.!.!.!.",
"/./.!.!.R.R.w w C.C.C.C.!.!.R.R.R.R.!.!.R.R.w f C.R.R.R.!.!.R.R.R.R.!.!.R.R.w w C.C.C.C.!.!.!.!.",
"!.!.R.R.R.R.w w R.R.C.C.C.C.R.R.!.!.R.R.R.R.f f C.C.R.R.C.C.!.!.C.C.R.R.R.R.w w R.R.C.C.C.C.C.C.",
"!.!.R.R.R.R.w f R.R.C.C.C.C.R.R.!.!.R.R.R.R.f f C.C.R.R.C.C.!.!.C.C.R.R.R.R.w w R.R.C.C.C.C.C.C.",
"!.!.R.R.C.C.f f C.C.C.C.C.C.C.C.C.C.R.R.C.C.f f C.C.R.R.C.C.R.R.R.R.R.R.C.C.w w C.C.C.C.R.R.R.C.",
"!.R.R.R.C.K.f f C.C.R.R.R.R.R.R.R.R.R.R.C.G.w f C.C.R.R.R.R.R.R.R.R.R.R.C.C.w w C.R.R.C.R.R.R.C.",
"R.R.R.R.D.L.f f C.C.R.R.R.R.R.R.R.R.C.C.C.C.f 7 C.C.C.R.R.R.R.R.R.C.C.C.C.C.w w C.R.R.C.C.C.R.C.",
"!.R.R.R.C.G.f f C.C.C.C.C.C.C.C.C.C.C.C.C.C.f f C.C.C.C.C.C.C.G.C.C.C.C.C.C.w w C.C.C.C.C.C.C.C."
};
