/* XPM */
static char *result[] = {
/* columns rows colors chars-per-pixel */
"48 48 17 1 ",
"  c #F1DFD6",
". c #D8C1C2",
"X c #3E394B",
"o c #ADA5BD",
"O c #350C25",
"+ c #62253E",
"@ c #80403A",
"# c #BB905C",
"$ c #985F40",
"% c #FDF9F1",
"& c #F96D07",
"* c #C82C12",
"= c #FE9E23",
"- c #FFE742",
"; c #716C7C",
": c #FBFFC0",
"> c #551831",
/* pixels */
"    ..XXoooooooo    OOOO++++++++++++++++++++OOOO",
"    ..XXoooooooo    OOOO++++++++++++++++++++OOOO",
"    ..XXoooooooo   .OO@@##$$$$##########$$##@@OO",
"    ..XXoooooooo  ..OO@@##$$$$##########$$##@@OO",
"    ..XXoo....  %%  ++##++++++@@####@@++++++##++",
"    ..XXoo....  %%  ++##++++++@@####@@++++++##++",
"....  XXoo..      %%++##@@++@@##&&&&##@@++@@##++",
"....  XXoo..      %%++##@@++@@##&&&&##@@++@@##++",
"    ..XXoooo  ....  ++$$@@++$$**==--&&$$++@@$$++",
"    ..XXoooo  ....  ++$$@@++$$**==--&&$$++@@$$++",
"  ....XXoooooo  oo..OO++$$++$$**&&==&&$$++$$++OO",
"  ....XXoooooo  oo..OO++$$++$$**&&==&&$$++$$++OO",
";;;;XXXXXXXXXXXXXX;;OOOO++$$@@$$****$$@@$$++OOOO",
";;;;XXXXXXXXXXXXXX;;OOOO++$$@@$$****$$@@$$++OOOO",
"......  %%  ooXXoo..++$$OO++$$$$####$$$$++OO$$++",
"......  %%  ooXXoo..++$$OO++$$$$####$$$$++OO$$++",
"oooooo..  ....XXoooo++@@$$OO@@##&&&&##@@OO$$@@++",
"oooooo..  ....XXoooo++@@$$OO@@##&&&&##@@OO$$@@++",
"XXXXXXXXXXXX;;XXXXXXOO++@@OO@@&&==--&&@@OO@@++OO",
"XXXXXXXXXXXX;;XXXXXXOO++@@OO@@&&==--&&@@OO@@++OO",
"......;;......  %%  ..**++OO**==--::--&&OO++OOOO",
"......;;......  %%  ..**++OO**==--::--&&OO++OOOO",
"    ..XXoo..  %%  %%**--OO++**==------&&++OO$$++",
"    ..XXoo..  %%  %%**--OO++**==------&&++OO$$++",
"....  XXoooo......  **--OO++**&&==--==&&OO$$@@++",
"....  XXoooo......  **--OO++**&&==--==&&OO$$@@++",
"..oo..XXoooooooooo..**==>>OO@@**&&&&**@@OO@@++OO",
"..oo..XXoooooooooo..**==>>OO@@**&&&&**@@OO@@++OO",
"XXXX;;XXXXXXXXXXXX;;XX**++OO++@@****@@++OO++OOOO",
"XXXX;;XXXXXXXXXXXX;;XX**++OO++@@****@@++OO++OOOO",
"  ....%%  ..ooXXoo..++$$OO++>>@@####@@>>++OO$$++",
"  ....%%  ..ooXXoo..++$$OO++>>@@####@@>>++OO$$++",
"  ..oo..    ..XXoooo++@@$$OO@@##&&&&##@@OO$$@@++",
"  ..oo..    ..XXoooo++@@$$OO@@##&&&&##@@OO$$@@++",
";;;;XX;;XXXXXX;;XXXXOO++@@OO$$**==--&&$$OO@@++OO",
";;;;XX;;XXXXXX;;XXXXOO++@@OO$$**==--&&$$OO@@++OO",
"    ..XXoo..%%  %%  OO>>++OO$$**&&==&&$$OO++>>OO",
"    ..XXoo..%%  %%  OO>>++OO$$**&&==&&$$OO++>>OO",
"  %%  XXoo  ..  ..%%OO$$>>++@@$$****$$@@++>>$$OO",
"  %%  XXoo  ..  ..%%OO$$>>++@@$$****$$@@++>>$$OO",
"%%  ..XXoooo  ....  OO$$@@>>++@@$$$$@@++>>@@$$OO",
"%%  ..XXoooo  ....  OO$$@@>>++@@$$$$@@++>>@@$$OO",
"  ....XX..oooo..  ..OO$$@@@@>>@@@@@@@@>>@@@@$$OO",
"  ....XX..oooo..  ..OO$$@@@@>>@@@@@@@@>>@@@@$$OO",
"  ..ooXXoooooooooo..OO@@$$$$OO$$$$$$$$OO$$$$@@OO",
" ...ooXXoo..........OO@@$$$$OO$$$$$$$$OO$$$$@@OO",
".....oXXoo........ooOOOOOOOO..OOOOOOOOXXOOOOOOOO",
" ...ooXXooooooooooooOOOOOOOOooOOOOOOOOXXOOOOOOOO"
};
