/* XPM */
static char *_156e299de7c44679ef83cb9c24bda42CTuJEt2Ab4iBTPaG[] = {
/* columns rows colors chars-per-pixel */
"48 48 17 1 ",
"  c None",
". c gray6",
"X c #191919",
"o c gray12",
"O c #2F0912",
"+ c gray22",
"@ c gray23",
"# c #56212C",
"$ c #572630",
"% c gray31",
"& c #505050",
"* c #7E7E7E",
"= c gray50",
"- c #A52548",
"; c #A42A49",
": c #EC4A4F",
"> c #F27C80",
/* pixels */
"  ......OOOOOOOOOOOOOOOOOOOOOOOOOOOOOOOO......  ",
"  ......OOOOOOOOOOOOOOOOOOOOOOOOOOOOOOOO......  ",
"..oooooo>>::>>::::::>>>>::>>>>::>>::>>::oooooo..",
"..oooooo>>::>>::::::>>>>::>>>>::>>::>>::oooooo..",
"..oo@@&&oo;;;;;;;;;;;;;;;;;;;;;;;;;;;;oo%%@@oo..",
"..oo@@&&oo;;;;;;;;;;;;;;;;;;;;;;;;;;;;oo%%@@oo..",
"..oo&&@@**oooooo$$$$$$$$$$$$$$$$oooooo==@@&&oo..",
"..oo&&@@**oooooo$$$$$$$$$$$$$$$$oooooo==@@&&oo..",
"OO::oo**&&@@&&oo>>>>::::>>>>::::oo%%@@%%==oo;;OO",
"OO::oo**&&@@&&oo>>>>::::>>>>::::oo%%@@%%==oo;;OO",
"OO>>;;oo@@**@@oooooooooooooooooooo@@==@@oo$$;;OO",
"OO>>;;oo@@**@@oooooooooooooooooooo@@==@@oo$$;;OO",
"OO::;;oo&&@@**@@&&****&&&&**&&&&@@==@@%%oo$$;;OO",
"OO::;;oo&&@@**@@&&****&&&&**&&&&@@==@@%%oo$$;;OO",
"OO>>;;oooooo@@&&@@@@@@@@@@@@@@@@&&@@oooooo$$;;OO",
"OO>>;;oooooo@@&&@@@@@@@@@@@@@@@@&&@@oooooo$$;;OO",
"OO::;;$$>>oo==@@*=@+==XX--XX&%@+@@&&oo$$::$$;;OO",
"OX::;;$$>>oo==@@==++=*XX--XX%%++@@&&oo$$::$$;;OO",
"OO::;;$$>>oo%&@@++XXXX%%XX==++XX@@&&oo$$::$$;;OO",
"OO::;;$$>>oo&&@@++XXXX%&XX==++XX@@&&oo$$::$$;;OO",
"OO>>;;$$>>oo&&@@XX##--XX%%++XX##@@%%oo$$>>$$;;OO",
"OO>>;;$$>>oo&&@@XX##--XX%%++XX##@@%%oo$$>>$$;;OO",
"OO>>;;$$::oo&&@@##--XX*=++XX####@@==oo$$::$$;;OO",
"OO>>;;$$::oo&&@@##--XX**++XX####@@==oo$$::$$;;OO",
"OO::;;$$::oo==@@--XX%%++XX##----@@%%oo$$::$$;;OO",
"OO::;;$$::oo==@@--XX%%+@XX##----@@%%oo$$::$$;;OO",
"OO::;;$$::oo&&@@XX**++XX##--XXXX@@==oo$$>>$$;;OO",
"OO::;;$$::oo&&@@XX**++XX##--XXXX@@==oo$$>>$$;;OO",
"OO>>;;$$>>+o**@@&%@+XX##--XX**&%@@&&oo$$>>$$;;OO",
"OO>>;;$$>:oo**@@%%++XX##--XX**%%@@&&oo$$>>$$;;OO",
"OO::;;$$::oo**@@++XX####--XX%%XX@@%%oo$$::$$;;OO",
"OO::;;$$::oo**@@++XX####--XX%%XX@@%%oo$$::$$;;OO",
"OO>>;;oooooo@@&&@@@@@@@@@@@@@@@@&&@@oooooo$$;;OO",
"OO>>;;oooooo@@&&@@@@@@@@@@@@@@@@&&@@oooooo$$;;OO",
"OO>>;;oo&&@@**@@&&&&===*%%**&&&&@@==@@&&oo$$;;OO",
"OO>>;;oo&&@@**@@&&&&==**%%**&&&%@@==@@&&oo$$;;OO",
"OO::;;oo@@**@@oooooooooooooooooooo@@==@@oo$$;;OO",
"OO::;;oo@@**@@oooooooooooooooooooo@@==@@oo$$;;OO",
"OO::oo**&&@@&&oo$$$$$$$$$$$$$$$$oo%%@@%%==oo;;OO",
"OO::oo**&&@@&&oo$$$$$$$$$$$$$$$$oo%%@@%%==oo;;OO",
"..oo&&@@**oooooo::>>>>::::>>::::oooooo==@@&&oo..",
"..oo&&@@**oooooo::>>>>::::>>::::oooooo==@@&&oo..",
"..oo@@&&oo$$$$$$$$$$$$$$$$$$$$$$$$$$$$oo%%@@oo..",
"..oo@@&&oo$$$$$$$$$$$$$$$$$$$$$$$$$$$$oo%%@@oo..",
"..oooooo;;;;;;;;;;;;;;;;;;;;;;;;;;;;;;;;oooooo..",
"..oooooo;;;;;;;;;;;;;;;;;;;;;;;;;;;;;;;;oooooo..",
"  ......OOOOOOOOOOOOOOOOOOOOOOOOOOOOOOOO......  ",
"  ......OOOOOOOOOOOOOOOOOOOOOOOOOOOOOOOO......  "
};
